<svg clip-rule="evenodd" fill-rule="evenodd" height="512" image-rendering="optimizeQuality" shape-rendering="geometricPrecision" text-rendering="geometricPrecision" viewBox="0 0 1.70666 1.70666" width="512" xmlns="http://www.w3.org/2000/svg"><g id="Layer_x0020_1"><g id="_382468152"><g><path id="_381784544" d="m.824681 1.63435c-.0432244 0-.0783819-.0340748-.0783819-.0759567s.0351614-.0759528.0783819-.0759528c.0432165 0 .0783858.0340709.0783858.0759528s-.0351654.0759567-.0783858.0759567zm0-.108472c-.0185 0-.0335551.0145866-.0335551.0325157 0 .0179331.0150551.0325197.0335551.0325197.0185039 0 .0335591-.0145866.0335591-.0325197 0-.0179291-.0150551-.0325157-.0335591-.0325157z"/></g><g><path id="_381784448" d="m1.13719 1.45356h-.625024c-.0457953 0-.0830512-.0361024-.0830512-.0804724v-1.16606c0-.0443701.0372598-.0804724.0830512-.0804724h.163252c.0123819 0 .0224134.00972441.0224134.0217165 0 .0279016.0234252.0505984.0522165.0505984h.14926c.0287913 0 .0522126-.0226969.0522126-.0505984 0-.0119921.0100315-.0217165.0224134-.0217165h.163256c.0457913 0 .0830433.0361024.0830433.0804724v.372555c0 .0119961-.0100315.0217205-.0224134.0217205s-.0224134-.00972441-.0224134-.0217205v-.372555c0-.0204252-.0171457-.0370354-.0382165-.0370354h-.143457c-.0101417.0414173-.0486299.072315-.0944291.072315h-.149256c-.0458031 0-.0842913-.0308976-.0944331-.072315h-.143449c-.0210748 0-.0382205.0166142-.0382205.0370315v1.16607c0 .0204213.0171457.0370315.0382205.0370315l.625024.00000394c.0210748 0 .0382165-.0166142.0382165-.0370354v-.282169c0-.00577165.00237402-.011311.00659449-.0153858l.00065354-.00062598c.00876772-.0084685.0229528-.00844488.0316969.00005118.00572835.0055748.00769291.0134055.00588583.0205315v.277598c.00000394.0443701-.037252.0804724-.0830472.0804724z"/></g><g><path id="_381784352" d="m1.15927 1.70666h-.670421c-.0953504 0-.172917-.0751614-.172917-.167551v-1.37156c0-.0923898.0775709-.167551.172917-.167551h.670421c.0953504 0 .172917.0751654.172917.167551v.0715709l.00046457.231496c.00002362.0119921-.00999213.0217362-.0223661.0217638-.012374-.0000315-.022437-.00968504-.0224606-.0216772l-.0004685-.231539v-.0716102c0-.068437-.0574567-.124114-.128087-.124114h-.670421c-.0706299 0-.128091.0556772-.128091.124114v1.37156c0 .068437.0574606.124114.128091.124114h.670421c.0706299 0 .128087-.0556772.128087-.124118l.00101969-.557681c.00002362-.0119803.0100512-.0216811.0224134-.0216811h.00004331c.0123819.00001968.0223937.00976378.0223701.0217598l-.00101575.557642c0 .0923543-.0775669.167516-.172917.167516z"/></g><g><path id="_381784256" d="m1.51501.206146c-.0535118 0-.0970394-.042185-.0970394-.0940354s.0435315-.0940276.0970394-.0940276c.0535039 0 .0970433.042185.0970433.0940276 0 .0518465-.0435354.0940354-.0970433.0940354zm0-.144626c-.0287953 0-.0522126.0226969-.0522126.0505906 0 .0279016.0234213.0505984.0522126.0505984.0287874 0 .0522165-.0226969.0522165-.0505984 0-.0278937-.0234291-.0505906-.0522165-.0505906z"/></g><g><path id="_381784160" d="m.134362 1.29085c-.0740906 0-.134366-.0584016-.134366-.130189 0-.0717913.0602717-.130193.134366-.130193.0740827 0 .134358.0584016.134358.130193 0 .0717874-.0602717.130189-.134358.130189zm0-.216941c-.0493701 0-.0895354.0389173-.0895354.0867559s.0401654.086752.0895354.086752c.0493661 0 .0895315-.0389134.0895315-.086752s-.0401654-.0867559-.0895315-.0867559z"/></g><g><path id="_381784040" d="m1.53367 1.39933c-.0637953 0-.115701-.0502913-.115701-.112114 0-.061815.0519016-.11211.115701-.11211.0637992 0 .115701.0502913.115701.11211-.00000394.0618189-.0519055.112114-.115701.112114zm0-.180787c-.0390827 0-.070874.0308071-.070874.0686772 0 .0378661.0317913.0686732.070874.0686732s.070874-.0308031.070874-.0686732c-.00000394-.0378701-.0317913-.0686772-.070874-.0686772z"/></g><g><g><path id="_382468920" d="m1.1545 1.12966c-.0226024 0-.0438465-.00852362-.0598268-.0240118-.0329843-.0319606-.0329843-.0839724.00000394-.115937l.485768-.470697c.00874803-.00848031.0229488-.00848031.0316929 0l.0879528.0852244c.00420472.0040748.00656693.00959449.00656693.0153583 0 .00576378-.00235827.0112874-.00656693.0153622l-.485772.470697c-.0159764.0154803-.0372205.0240039-.0598189.0240039zm.441791-.564579-.469921.455343c-.0155079.0150276-.0155079.0394803 0 .0545118.00751181.00727953.0175.0112874.028126.0112874.010622 0 .0206102-.00400787.028122-.0112874l.469921-.455343z"/></g><g><path id="_382468824" d="m1.06655 1.04444c-.0225984 0-.0438425-.00852756-.0598228-.0240118-.0329843-.0319606-.0329843-.0839724-.00000787-.115933l.485772-.470701c.00874803-.00848031.0229488-.00848031.0316929 0l.0879528.0852244c.00420866.0040748.00656693.00959449.00656693.0153583 0 .00576772-.00235827.0112874-.00656693.0153622l-.485768.470697c-.0159724.0154764-.0372165.0240039-.0598189.0240039zm.441791-.564571-.469921.455343c-.0155079.0150236-.0155079.0394803.00000394.0545079.00751181.00727953.0174961.0112913.028122.0112913.010626 0 .0206142-.00400787.0281299-.0112913l.469913-.455343-.056248-.0545079z"/></g><g><path id="_382468728" d="m.978598.95922c-.0225984 0-.0438425-.00852756-.0598268-.0240118-.0329882-.0319685-.0329882-.0839764 0-.115941l.485768-.470701c.00420866-.0040748.00990551-.00635827.0158465-.00635827.00594488 0 .0116496.0022874.0158504.00635827l.0879488.0852244c.00875197.00848425.00875197.0222362 0 .0307165l-.485768.470697c-.0159685.0154803-.0372165.0240157-.0598189.0240157zm.441795-.564579-.469921.455339c-.0155079.0150276-.0155079.0394803 0 .0545079.00751575.00727953.0175.0112874.028126.0112874.010622 0 .0206142-.00400787.0281181-.0112874l.469921-.455343z"/></g><g><path id="_382468632" d="m.824681 1.21854c-.00588583 0-.0116063-.00224803-.0158465-.00635827-.00530315-.00513386-.00759843-.0124961-.00613386-.0196181l.0659646-.319591c.00087008-.00420472.00300394-.00806299.00613386-.0110984l.529748-.513307c.00874803-.00848031.0229488-.00848031.0316929 0l.263854.255669c.00875591.00848031.00875591.0222362 0 .0307126l-.529748.513315c-.00312205.0030315-.00711417.00509843-.0114528.00593701l-.329819.0639173c-.00145669.00028347-.00292913.00042126-.0043937.00042126zm.0866181-.330602-.0580433.281197.290197-.0562402.509098-.493303-.232157-.224953-.509094.493299z"/></g></g><g><path id="_382468512" d="m.880657.441165h-.279862c-.0123819 0-.0224134-.00972441-.0224134-.0217165 0-.0119921.0100315-.0217205.0224134-.0217205h.279862c.0123819 0 .0224134.00972835.0224134.0217205 0 .0119921-.0100315.0217165-.0224134.0217165z"/></g><g><path id="_382468416" d="m.880657.531559h-.279862c-.0123819 0-.0224134-.00972441-.0224134-.0217165 0-.0119921.0100315-.0217205.0224134-.0217205h.279862c.0123819 0 .0224134.00972441.0224134.0217165 0 .0119961-.0100315.0217205-.0224134.0217205z"/></g><g><path id="_382468320" d="m.880657.621953h-.279862c-.0123819 0-.0224134-.00972441-.0224134-.0217165 0-.0119921.0100315-.0217205.0224134-.0217205h.279862c.0123819 0 .0224134.00972441.0224134.0217165 0 .0119961-.0100315.0217205-.0224134.0217205z"/></g><g><path id="_382468176" d="m.880657.712343h-.279862c-.0123819 0-.0224134-.00972441-.0224134-.0217205 0-.0119921.0100315-.0217165.0224134-.0217165h.279862c.0123819 0 .0224134.00972441.0224134.0217165 0 .0119921-.0100315.0217205-.0224134.0217205z"/></g></g></g></svg>