<?xml version="1.0" encoding="UTF-8"?>
<svg xmlns="http://www.w3.org/2000/svg" id="Icons" viewBox="0 0 60 60" width="512" height="512"><path d="M57,6H34a3,3,0,0,0-3,3v5.051c-.332-.021-.662-.051-1-.051s-.668.03-1,.051V9a3,3,0,0,0-3-3H3A3,3,0,0,0,0,9V51a3,3,0,0,0,3,3H26a3,3,0,0,0,3-3V45.949c.332.021.662.051,1,.051s.668-.03,1-.051V51a3,3,0,0,0,3,3H57a3,3,0,0,0,3-3V9A3,3,0,0,0,57,6ZM34,8H57a1,1,0,0,1,1,1v1H33V9A1,1,0,0,1,34,8ZM8,8H21v2a1,1,0,0,1-1,1H9a1,1,0,0,1-1-1ZM27,51a1,1,0,0,1-1,1H3a1,1,0,0,1-1-1V9A1,1,0,0,1,3,8H6v2a3,3,0,0,0,3,3H20a3,3,0,0,0,3-3V8h3a1,1,0,0,1,1,1v5.292a15.99,15.99,0,0,0,0,31.416ZM16,30A14,14,0,1,1,30,44,14.015,14.015,0,0,1,16,30Zm30,0A16.019,16.019,0,0,0,33,14.292V12H58V48H33V45.708A16.019,16.019,0,0,0,46,30ZM33,51V50h8.184a2.809,2.809,0,0,0,0,2H34A1,1,0,0,1,33,51Zm11,1a1,1,0,0,1,0-2h3a1,1,0,0,1,0,2Zm13,0H49.816a2.809,2.809,0,0,0,0-2H58v1A1,1,0,0,1,57,52Z"/><path d="M8,49a1,1,0,0,0,1,1H20a1,1,0,0,0,0-2H9A1,1,0,0,0,8,49Z"/><path d="M25.707,26.293a1,1,0,0,0-1.414,0l-3,3a1,1,0,0,0,0,1.414l3,3a1,1,0,0,0,1.414-1.414L23.414,30l2.293-2.293A1,1,0,0,0,25.707,26.293Z"/><path d="M35.707,26.293a1,1,0,0,0-1.414,1.414L36.586,30l-2.293,2.293a1,1,0,1,0,1.414,1.414l3-3a1,1,0,0,0,0-1.414Z"/><path d="M31.242,25.03a1,1,0,0,0-1.212.728l-2,8a1,1,0,0,0,.728,1.212A1.017,1.017,0,0,0,29,35a1,1,0,0,0,.969-.758l2-8A1,1,0,0,0,31.242,25.03Z"/></svg>
