<svg xmlns="http://www.w3.org/2000/svg" width="512px" height="512px" viewBox="0 0 60 60" fill="#1D256E"><g clip-path="url(#clip0_64_676)"><path d="M23 54H13C12.7348 54 12.4804 54.1054 12.2929 54.2929C12.1054 54.4804 12 54.7348 12 55C12 55.2652 12.1054 55.5196 12.2929 55.7071C12.4804 55.8946 12.7348 56 13 56H23C23.2652 56 23.5196 55.8946 23.7071 55.7071C23.8946 55.5196 24 55.2652 24 55C24 54.7348 23.8946 54.4804 23.7071 54.2929C23.5196 54.1054 23.2652 54 23 54ZM32 21V11C32 10.4696 31.7893 9.96086 31.4142 9.58579C31.0391 9.21071 30.5304 9 30 9H6C5.46957 9 4.96086 9.21071 4.58579 9.58579C4.21071 9.96086 4 10.4696 4 11V21C4 21.5304 4.21071 22.0391 4.58579 22.4142C4.96086 22.7893 5.46957 23 6 23H30C30.5304 23 31.0391 22.7893 31.4142 22.4142C31.7893 22.0391 32 21.5304 32 21ZM25.764 11L6 20.882V11H25.764ZM10.236 21L30 11.118V21H10.236ZM7 27H12C12.2652 27 12.5196 26.8946 12.7071 26.7071C12.8946 26.5196 13 26.2652 13 26C13 25.7348 12.8946 25.4804 12.7071 25.2929C12.5196 25.1054 12.2652 25 12 25H7C6.73478 25 6.48043 25.1054 6.29289 25.2929C6.10536 25.4804 6 25.7348 6 26C6 26.2652 6.10536 26.5196 6.29289 26.7071C6.48043 26.8946 6.73478 27 7 27ZM29 25H16C15.7348 25 15.4804 25.1054 15.2929 25.2929C15.1054 25.4804 15 25.7348 15 26C15 26.2652 15.1054 26.5196 15.2929 26.7071C15.4804 26.8946 15.7348 27 16 27H29C29.2652 27 29.5196 26.8946 29.7071 26.7071C29.8946 26.5196 30 26.2652 30 26C30 25.7348 29.8946 25.4804 29.7071 25.2929C29.5196 25.1054 29.2652 25 29 25ZM7 34H19C19.2652 34 19.5196 33.8946 19.7071 33.7071C19.8946 33.5196 20 33.2652 20 33C20 32.7348 19.8946 32.4804 19.7071 32.2929C19.5196 32.1054 19.2652 32 19 32H7C6.73478 32 6.48043 32.1054 6.29289 32.2929C6.10536 32.4804 6 32.7348 6 33C6 33.2652 6.10536 33.5196 6.29289 33.7071C6.48043 33.8946 6.73478 34 7 34ZM29 32H23C22.7348 32 22.4804 32.1054 22.2929 32.2929C22.1054 32.4804 22 32.7348 22 33C22 33.2652 22.1054 33.5196 22.2929 33.7071C22.4804 33.8946 22.7348 34 23 34H29C29.2652 34 29.5196 33.8946 29.7071 33.7071C29.8946 33.5196 30 33.2652 30 33C30 32.7348 29.8946 32.4804 29.7071 32.2929C29.5196 32.1054 29.2652 32 29 32ZM29 36H7C6.73478 36 6.48043 36.1054 6.29289 36.2929C6.10536 36.4804 6 36.7348 6 37C6 37.2652 6.10536 37.5196 6.29289 37.7071C6.48043 37.8946 6.73478 38 7 38H29C29.2652 38 29.5196 37.8946 29.7071 37.7071C29.8946 37.5196 30 37.2652 30 37C30 36.7348 29.8946 36.4804 29.7071 36.2929C29.5196 36.1054 29.2652 36 29 36ZM7 42H19C19.2652 42 19.5196 41.8946 19.7071 41.7071C19.8946 41.5196 20 41.2652 20 41C20 40.7348 19.8946 40.4804 19.7071 40.2929C19.5196 40.1054 19.2652 40 19 40H7C6.73478 40 6.48043 40.1054 6.29289 40.2929C6.10536 40.4804 6 40.7348 6 41C6 41.2652 6.10536 41.5196 6.29289 41.7071C6.48043 41.8946 6.73478 42 7 42ZM29 40H23C22.7348 40 22.4804 40.1054 22.2929 40.2929C22.1054 40.4804 22 40.7348 22 41C22 41.2652 22.1054 41.5196 22.2929 41.7071C22.4804 41.8946 22.7348 42 23 42H29C29.2652 42 29.5196 41.8946 29.7071 41.7071C29.8946 41.5196 30 41.2652 30 41C30 40.7348 29.8946 40.4804 29.7071 40.2929C29.5196 40.1054 29.2652 40 29 40ZM29 44H7C6.73478 44 6.48043 44.1054 6.29289 44.2929C6.10536 44.4804 6 44.7348 6 45C6 45.2652 6.10536 45.5196 6.29289 45.7071C6.48043 45.8946 6.73478 46 7 46H29C29.2652 46 29.5196 45.8946 29.7071 45.7071C29.8946 45.5196 30 45.2652 30 45C30 44.7348 29.8946 44.4804 29.7071 44.2929C29.5196 44.1054 29.2652 44 29 44Z" fill="#1D256E"></path><path d="M57 5H36C35.9984 3.6744 35.4711 2.40356 34.5338 1.46622C33.5964 0.528882 32.3256 0.00158786 31 0L5 0C3.6744 0.00158786 2.40356 0.528882 1.46622 1.46622C0.528882 2.40356 0.00158786 3.6744 0 5L0 55C0.00158786 56.3256 0.528882 57.5964 1.46622 58.5338C2.40356 59.4711 3.6744 59.9984 5 60H57C57.7956 60 58.5587 59.6839 59.1213 59.1213C59.6839 58.5587 60 57.7956 60 57V8C60 7.20435 59.6839 6.44129 59.1213 5.87868C58.5587 5.31607 57.7956 5 57 5ZM57 7C57.2652 7 57.5196 7.10536 57.7071 7.29289C57.8946 7.48043 58 7.73478 58 8V13H36V7H57ZM54 19V29H38.3L53.3 19H54ZM36 28.132V19H49.7L36 28.132ZM27 2V3C27 3.26522 26.8946 3.51957 26.7071 3.70711C26.5196 3.89464 26.2652 4 26 4H10C9.73478 4 9.48043 3.89464 9.29289 3.70711C9.10536 3.51957 9 3.26522 9 3V2H27ZM29 58H5C4.20435 58 3.44129 57.6839 2.87868 57.1213C2.31607 56.5587 2 55.7956 2 55V5C2 4.20435 2.31607 3.44129 2.87868 2.87868C3.44129 2.31607 4.20435 2 5 2H7V3C7 3.79565 7.31607 4.55871 7.87868 5.12132C8.44129 5.68393 9.20435 6 10 6H26C26.7956 6 27.5587 5.68393 28.1213 5.12132C28.6839 4.55871 29 3.79565 29 3V2H31C31.7956 2 32.5587 2.31607 33.1213 2.87868C33.6839 3.44129 34 4.20435 34 5V55C34 55.7956 33.6839 56.5587 33.1213 57.1213C32.5587 57.6839 31.7956 58 31 58H29ZM57 58H34.974C35.429 57.411 35.744 56.728 35.899 56H48C48.2652 56 48.5196 55.8946 48.7071 55.7071C48.8946 55.5196 49 55.2652 49 55C49 54.7348 48.8946 54.4804 48.7071 54.2929C48.5196 54.1054 48.2652 54 48 54H36V31H54C54.5304 31 55.0391 30.7893 55.4142 30.4142C55.7893 30.0391 56 29.5304 56 29V19C56 18.4696 55.7893 17.9609 55.4142 17.5858C55.0391 17.2107 54.5304 17 54 17H36V15H58V57C58 57.2652 57.8946 57.5196 57.7071 57.7071C57.5196 57.8946 57.2652 58 57 58Z" fill="#1D256E"></path><path d="M55 11C55.5523 11 56 10.5523 56 10C56 9.44772 55.5523 9 55 9C54.4477 9 54 9.44772 54 10C54 10.5523 54.4477 11 55 11Z" fill="#1D256E"></path><path d="M51 11C51.5523 11 52 10.5523 52 10C52 9.44772 51.5523 9 51 9C50.4477 9 50 9.44772 50 10C50 10.5523 50.4477 11 51 11Z" fill="#1D256E"></path><path d="M47 11C47.5523 11 48 10.5523 48 10C48 9.44772 47.5523 9 47 9C46.4477 9 46 9.44772 46 10C46 10.5523 46.4477 11 47 11Z" fill="#1D256E"></path><path d="M54 33H44C43.4696 33 42.9609 33.2107 42.5858 33.5858C42.2107 33.9609 42 34.4696 42 35V45C42 45.5304 42.2107 46.0391 42.5858 46.4142C42.9609 46.7893 43.4696 47 44 47H54C54.5304 47 55.0391 46.7893 55.4142 46.4142C55.7893 46.0391 56 45.5304 56 45V35C56 34.4696 55.7893 33.9609 55.4142 33.5858C55.0391 33.2107 54.5304 33 54 33ZM53.438 35L44 42.865V35H53.438ZM44.562 45L54 37.135V45H44.562ZM55 54H52C51.7348 54 51.4804 54.1054 51.2929 54.2929C51.1054 54.4804 51 54.7348 51 55C51 55.2652 51.1054 55.5196 51.2929 55.7071C51.4804 55.8946 51.7348 56 52 56H55C55.2652 56 55.5196 55.8946 55.7071 55.7071C55.8946 55.5196 56 55.2652 56 55C56 54.7348 55.8946 54.4804 55.7071 54.2929C55.5196 54.1054 55.2652 54 55 54Z" fill="#1D256E"></path></g><defs><clipPath id="clip0_64_676"><rect width="512px" height="512px" fill="white"></rect></clipPath></defs></svg>